<?xml version="1.0" standalone="no"?>
<!DOCTYPE svg PUBLIC "-//W3C//DTD SVG 20010904//EN"
 "http://www.w3.org/TR/2001/REC-SVG-20010904/DTD/svg10.dtd">
<svg version="1.0" xmlns="http://www.w3.org/2000/svg"
 width="1380.000000pt" height="1380.000000pt" viewBox="0 0 1380.000000 1380.000000"
 preserveAspectRatio="xMidYMid meet">
<metadata>
Created by potrace 1.14, written by Peter Selinger 2001-2017
</metadata>
<g transform="translate(0.000000,1380.000000) scale(0.100000,-0.100000)"
fill="#000000" stroke="none">
<path d="M0 6900 l0 -2560 6900 0 6900 0 0 2560 0 2560 -6900 0 -6900 0 0
-2560z m6554 2060 c5 -6 9 -59 6 -75 -2 -13 -2 -87 0 -100 1 -5 2 -14 1 -20
-3 -13 -3 -169 0 -181 1 -5 0 -13 -1 -19 -2 -13 -2 -87 0 -100 1 -5 2 -14 1
-20 -3 -13 -3 -169 0 -181 1 -5 0 -13 -1 -19 -2 -13 -2 -87 0 -100 1 -5 2 -14
1 -20 -3 -13 -3 -169 0 -181 1 -5 0 -13 -1 -19 -2 -13 -2 -87 0 -100 1 -5 2
-14 1 -20 -3 -13 -3 -169 0 -181 1 -5 0 -13 -1 -19 -4 -21 -1 -95 4 -104 4 -5
3 -12 -2 -15 -5 -3 -6 -27 -2 -54 3 -27 3 -58 -1 -68 -3 -11 -3 -29 2 -40 4
-12 5 -25 2 -28 -5 -5 -7 -125 -3 -143 1 -5 1 -12 0 -18 -5 -22 -2 -103 4
-113 3 -6 3 -13 -2 -16 -5 -3 -6 -27 -2 -54 3 -27 3 -58 -1 -68 -3 -11 -3 -29
2 -40 4 -12 5 -25 2 -28 -4 -4 -6 -25 -5 -49 4 -99 3 -127 -3 -137 -3 -5 -2
-10 4 -10 6 0 7 -11 2 -27 -5 -16 -5 -37 -1 -48 4 -11 4 -27 -1 -36 -5 -9 -6
-18 -4 -21 10 -9 12 -69 4 -74 -5 -3 -7 -10 -3 -15 3 -5 5 -30 4 -54 -1 -48
-1 -99 0 -184 0 -29 -1 -56 -4 -58 -3 -3 -1 -16 4 -29 5 -13 6 -25 1 -28 -4
-3 -5 -27 -1 -54 3 -27 3 -58 -1 -68 -3 -11 -3 -29 2 -40 4 -12 5 -25 2 -28
-4 -4 -6 -25 -5 -49 4 -99 3 -127 -3 -137 -3 -5 -2 -10 4 -10 6 0 7 -11 2 -27
-5 -16 -5 -37 -1 -48 4 -11 4 -27 -1 -36 -5 -9 -6 -18 -4 -21 10 -9 12 -69 4
-74 -5 -3 -7 -10 -3 -15 3 -5 5 -30 4 -54 -1 -48 -1 -99 0 -184 0 -29 -1 -56
-4 -58 -3 -3 -1 -16 4 -29 5 -13 6 -25 1 -28 -4 -3 -5 -27 -1 -54 3 -27 3 -58
-1 -68 -3 -11 -3 -29 2 -41 5 -12 5 -25 0 -27 -5 -3 -6 -16 -4 -29 5 -25 -21
-45 -32 -26 -4 5 -11 6 -17 3 -15 -9 -119 -10 -125 -1 -2 4 -9 4 -15 1 -16
-10 -177 -10 -171 0 4 5 0 6 -6 1 -11 -6 -257 -11 -286 -5 -5 1 -14 1 -20 0
-24 -6 -233 -2 -244 4 -6 4 -11 4 -11 -1 0 -4 -36 -8 -79 -8 -44 0 -77 3 -75
7 3 4 -2 5 -11 1 -22 -8 -305 -10 -305 -2 0 4 -18 3 -39 -1 -21 -4 -46 -3 -55
2 -9 5 -16 5 -16 1 0 -4 -29 -8 -65 -8 -36 0 -65 4 -65 8 0 5 -5 5 -11 1 -16
-10 -149 -11 -149 -1 0 4 -8 4 -17 0 -10 -5 -40 -7 -68 -6 -62 3 -73 3 -160 0
-38 -1 -78 1 -87 6 -10 4 -18 4 -18 0 0 -4 -29 -8 -65 -8 -36 0 -65 4 -65 8 0
5 -5 5 -11 1 -16 -10 -149 -11 -149 -1 0 4 -8 4 -17 0 -10 -5 -40 -7 -68 -6
-56 3 -48 3 -210 2 -66 0 -124 0 -130 1 -5 1 -14 1 -20 0 -23 -5 -125 -3 -131
3 -4 4 -11 4 -17 0 -9 -6 -106 -8 -124 -3 -5 1 -12 1 -18 0 -25 -6 -112 -5
-132 2 -13 4 -23 4 -23 0 0 -9 -114 -7 -128 2 -6 3 -13 3 -15 -1 -4 -7 -151
-9 -167 -3 -3 2 -9 1 -15 0 -26 -5 -118 -4 -128 2 -6 4 -15 4 -21 1 -13 -8
-108 -8 -129 0 -9 3 -18 3 -21 -1 -3 -6 -151 -7 -166 -2 -3 2 -9 1 -15 0 -25
-6 -112 -5 -132 2 -13 4 -23 4 -23 0 0 -9 -114 -7 -128 2 -6 3 -13 3 -15 -1
-4 -7 -151 -9 -167 -3 -3 2 -9 1 -15 0 -26 -5 -118 -4 -128 2 -6 4 -15 4 -21
1 -13 -8 -108 -8 -129 0 -9 3 -18 3 -21 -1 -3 -6 -151 -7 -166 -2 -3 2 -9 1
-15 0 -24 -5 -145 -4 -145 1 0 4 -18 3 -39 -1 -21 -4 -46 -3 -55 2 -9 5 -16 5
-16 1 0 -4 -29 -8 -65 -8 -36 0 -65 4 -65 8 0 5 -5 5 -11 1 -16 -10 -149 -11
-149 -1 0 4 -8 4 -17 0 -10 -5 -40 -7 -68 -6 -63 3 -66 3 -203 0 -68 -1 -116
2 -120 8 -9 14 -10 4098 -1 4110 7 10 6033 14 6043 5z m721 0 c30 0 61 1 68 1
6 1 23 0 37 -1 34 -2 143 -2 183 1 6 0 142 0 300 -1 159 -1 291 1 293 3 3 3
20 1 39 -3 19 -4 36 -6 38 -3 3 2 27 4 53 3 57 -1 66 -1 139 -1 55 0 74 0 98
2 6 0 142 0 300 -1 159 -1 291 1 293 3 3 3 20 1 39 -3 19 -4 36 -6 38 -3 3 2
27 4 53 3 57 -1 66 -1 139 -1 55 0 74 0 98 2 6 0 142 0 300 -1 159 -1 291 1
293 3 3 3 20 1 39 -3 19 -4 36 -6 38 -3 3 2 27 4 53 3 57 -1 66 -1 139 -1 55
0 74 0 98 2 6 0 142 0 300 -1 159 -1 291 1 293 3 3 3 20 1 39 -3 19 -4 36 -6
38 -3 3 2 27 4 53 3 57 -1 66 -1 139 -1 55 0 74 0 98 2 6 0 142 0 300 -1 159
-1 291 1 293 3 3 3 20 1 39 -3 19 -4 36 -6 38 -3 3 2 27 4 53 3 57 -1 66 -1
139 -1 55 0 74 0 98 2 6 0 140 0 297 -1 157 0 290 0 295 1 6 1 15 0 20 -1 6
-1 33 -1 60 0 63 1 66 1 90 0 11 -1 47 -1 80 -1 33 0 67 0 76 0 16 0 17 -74
17 -937 l0 -937 -2146 0 -2145 0 -1 -248 c-1 -137 2 -251 6 -253 3 -2 970 -4
2147 -4 l2141 0 0 -868 0 -868 -3105 0 c-1708 0 -3105 3 -3106 6 -1 3 -2 928
-3 2057 l-1 2052 53 0 c30 0 56 2 59 5 3 3 10 3 15 0 4 -3 33 -5 63 -4z"/>
</g>
</svg>
